<?xml version="1.0" encoding="UTF-8"?>
<svg width="81px" height="81px" viewBox="0 0 81 81" version="1.1" xmlns="http://www.w3.org/2000/svg" xmlns:xlink="http://www.w3.org/1999/xlink">
    <!-- Generator: Sketch 52.6 (67491) - http://www.bohemiancoding.com/sketch -->
    <title>Group 11</title>
    <desc>Created with Sketch.</desc>
    <g id="Main-file" stroke="none" stroke-width="1" fill="none" fill-rule="evenodd">
        <g id="Group-11" transform="translate(1.000000, 1.000000)">
            <g id="Group-7" fill="#F8BD00" stroke="#F8BD00">
                <circle id="Oval-Copy" cx="39.5" cy="39.5" r="39.5"></circle>
            </g>
            <g id="man-(1)" transform="translate(22.000000, 20.000000)" fill="#FFFFFF">
                <g id="Group-10">
                    <path d="M24.5,16 C24.2236979,16 24,16.2122933 24,16.4739571 L24,17.5260429 C24,17.7877067 24.2236979,18 24.5,18 C24.7760417,18 25,17.7877067 25,17.5260429 L25,16.4739571 C25,16.2122933 24.7760417,16 24.5,16 Z" id="Path"></path>
                    <path d="M11.5,18 C11.7760417,18 12,17.7877067 12,17.5260429 L12,16.4739571 C12,16.2122933 11.7760417,16 11.5,16 C11.2239583,16 11,16.2122933 11,16.4739571 L11,17.5260429 C11,17.7877067 11.2239583,18 11.5,18 Z" id="Path"></path>
                    <path d="M18.0000789,20 C17.2821085,20 16.6077472,20.3281315 16.1501675,20.9004618 C15.9292778,21.1760922 15.9551905,21.5950642 16.2073649,21.8361546 C16.4503751,22.0682644 16.8422252,22.0499581 17.0637469,21.7732915 C17.2909567,21.4893714 17.6322455,21.3263419 18.0000789,21.3263419 C18.3679124,21.3263419 18.7092011,21.489026 18.936411,21.7732915 C19.1569846,22.0489219 19.5403025,22.0772449 19.792477,21.8361546 C20.0449675,21.5950642 20.0705641,21.1760922 19.8499905,20.9004618 C19.3924107,20.3281315 18.7180494,20 18.0000789,20 Z" id="Path"></path>
                    <path d="M25.8296112,40 C26.1478393,40 26.4060243,39.7375495 26.4060243,39.4140639 C26.4060243,38.7152132 26.3390764,38.0069018 26.2072819,37.3089666 C25.7950865,35.1220823 24.7803593,33.1808639 23.3681472,31.8289385 C27.255333,30.3482292 30.3790717,27.3086859 31.9714129,23.4778237 C32.1485398,23.5055947 32.3280685,23.5199379 32.5081976,23.5199379 C34.4337776,23.5199379 36,21.9275345 36,19.9704471 C36,18.7790437 35.4145805,17.7203915 34.5217407,17.0758618 C34.6721484,16.2750825 34.9546509,14.3897112 34.8375669,11.9995804 C34.6958654,9.09828131 33.9081008,4.88625554 30.9629902,1.29404021 C30.6552697,0.918674882 30.1839318,0.720311149 29.7029872,0.763035654 C29.4988409,0.781041001 29.2457595,0.814610215 28.9257302,0.856724409 C26.9356039,1.11917494 22.7941359,1.66543821 16.9825709,0.337011308 C13.8855513,-0.370994769 10.5183382,0.0480105322 7.74344946,1.48599529 C7.46004636,1.63308969 7.34716546,1.98587203 7.4918692,2.27426242 C7.63657287,2.5626528 7.98362158,2.67709346 8.26732489,2.52999906 C10.8062445,1.21408431 13.890655,0.831394862 16.7294895,1.48050218 C22.7403973,2.85440014 27.0184632,2.29013152 29.0740364,2.01883093 C29.3808563,1.9782426 29.6231299,1.94650439 29.8029588,1.93063537 C29.9083344,1.92117492 30.0110079,1.96359419 30.0773554,2.04446564 C32.8096136,5.376977 33.546942,9.30915728 33.6844405,12.0212478 C33.7859133,14.0253323 33.5844689,15.6802964 33.4412663,16.5509608 C33.4358624,16.5494349 33.4301583,16.5482142 33.4244542,16.5466884 C33.3791217,16.5341762 33.3331888,16.5228847 33.2872559,16.5122036 C33.2755475,16.509457 33.2641393,16.5061001 33.2524309,16.5036587 C33.1935888,16.4905362 33.1341462,16.4789395 33.0744033,16.4688687 C32.8852678,14.089419 32.1443368,11.8192219 30.8969428,9.79224938 C30.6078356,9.32258498 30.3139251,8.82331863 29.9242457,8.42292898 C29.3949664,7.87330877 28.6624414,7.59407359 27.9101023,7.64808955 C27.5426389,7.67372426 27.1928882,7.79793052 26.8377338,7.88704163 C24.1949397,8.5511025 21.4164485,8.49067788 18.8075788,7.69569686 C18.8033758,7.69447616 18.7988725,7.69325546 18.7943693,7.6917296 C17.4028721,7.25838106 16.049202,6.83174632 14.5895558,6.71303325 C11.7930517,6.48567787 8.91939228,7.2055858 6.69239622,8.97895793 C4.89921113,10.4071771 3.61729238,12.4658878 3.16726992,14.7400522 C3.05859199,15.2884517 2.98203711,15.8426495 2.93280183,16.3998992 C2.93220143,16.4075285 2.9307003,16.467648 2.92889905,16.4682584 C2.86825555,16.4783292 2.56083523,16.5457728 2.56173589,16.5500453 C1.61095456,11.0614724 2.95501779,6.53877829 6.379572,3.76321142 C6.62845042,3.56118551 6.66927968,3.19253407 6.4708374,2.93954399 C6.2723952,2.68655391 5.9097353,2.6450501 5.66085695,2.84677078 C1.82230603,5.95833542 0.347649187,10.9989114 1.48516439,17.070979 C0.588121507,17.7148984 0,18.775992 0,19.9704471 C0,21.9275345 1.56652264,23.5199379 3.49180248,23.5199379 C3.67223177,23.5199379 3.8514602,23.5055947 4.02858718,23.4778237 C5.62092836,27.3086859 8.74466702,30.3482292 12.6318528,31.8289385 C11.2196408,33.1805588 10.2049135,35.1220823 9.79301834,37.3083562 C9.66092367,38.0065967 9.59427595,38.7152132 9.59427595,39.4140639 C9.59427595,39.7375495 9.85216071,40 10.170689,40 L25.8296112,40 Z M3.6073853,22.345014 C3.56895776,22.346845 3.53053022,22.3480658 3.49180248,22.3480658 C2.20207818,22.3480658 1.15282619,21.281479 1.15282619,19.9704471 C1.15282619,18.8797515 1.88475078,17.9541556 2.87726204,17.6770567 L2.87726204,17.6929258 C2.87726204,18.3405072 2.91869169,18.9880886 3.00095068,19.6301769 C3.11893522,20.5524158 3.32098008,21.4597012 3.6073853,22.345014 Z M10.9251297,37.5293029 C11.3175109,35.4477041 12.3109229,33.627335 13.6838067,32.4438662 L13.6838067,38.8281279 L10.7645146,38.8281279 C10.7900328,38.3950845 10.8437714,37.9602101 10.9251297,37.5293029 Z M14.8366329,32.482013 C15.3304868,32.5869933 15.8303451,32.6663388 16.3317044,32.7215755 L16.2818687,33.5693517 C16.2596528,33.9474636 16.403756,34.317946 16.6652435,34.5803966 L16.225128,38.8281279 L14.8369331,38.8281279 L14.8369331,32.482013 L14.8366329,32.482013 Z M20.0486682,32.6748837 C20.4224361,32.6245298 20.7941025,32.5607482 21.1630669,32.482013 L21.1630669,38.8281279 L19.774872,38.8281279 L19.3416615,34.6453989 C19.6466801,34.3808121 19.8184032,33.9798121 19.794386,33.5693517 L19.7439499,32.7130305 C19.8457228,32.7014339 19.9471955,32.6886165 20.0486682,32.6748837 Z M18.0381273,34.1476584 L17.4905349,33.7606965 C17.4521074,33.7335358 17.4298914,33.6871492 17.4325934,33.6392368 L17.4818287,32.8051934 C17.5025435,32.8058037 18.5478927,32.8045831 18.594426,32.802752 L18.6436613,33.6392368 C18.6463633,33.6871492 18.6241473,33.7335358 18.5857198,33.7606965 L18.0381273,34.1476584 Z M17.3842587,38.8281279 L17.7514219,35.2832147 C17.8357823,35.3057976 17.9237454,35.3189201 18.0108077,35.3189201 C18.0912654,35.3207512 18.1711227,35.315258 18.2503795,35.2999993 L18.6157413,38.8281279 L17.3842587,38.8281279 Z M25.0748704,37.5296081 C25.1562286,37.9602101 25.2099672,38.3950845 25.2354854,38.8281279 L22.3161933,38.8281279 L22.3161933,32.4438662 C23.6890772,33.627335 24.6824891,35.4477041 25.0748704,37.5296081 Z M21.4903014,31.2014986 C19.211068,31.7889606 16.7889321,31.7889606 14.5096987,31.2014986 C9.05148695,29.7946417 4.87579431,25.1675779 4.14416999,19.4791152 C4.14266894,19.4669082 4.1411678,19.4543961 4.13966675,19.4421891 C3.93431958,17.7985163 3.96914454,15.9961526 4.42397052,14.3948992 C4.42487118,14.3921526 4.42547157,14.3897112 4.42637224,14.3869647 C5.28348652,11.3693939 7.77887489,9.0348049 10.7362943,8.21693582 C13.3928983,7.48207434 15.891589,8.0582448 18.4659339,8.81507888 C18.4677352,8.81538411 18.4692363,8.81599443 18.4707374,8.81660474 C21.3125741,9.68665878 24.2147539,9.75654384 27.1148324,9.02473415 C27.4348617,8.94386278 27.7518889,8.81385818 28.0857281,8.81385818 C28.5351502,8.81385818 28.9575529,9.02931179 29.2286472,9.3927752 C30.8690229,11.5903407 31.8255083,14.2810689 31.9540004,17.0352736 C31.9921277,17.8503961 31.9600047,18.6691807 31.8558301,19.4781997 C31.1248062,25.1669675 26.9488133,29.7943366 21.4903014,31.2014986 Z M32.5081976,22.3480658 C32.4694698,22.3480658 32.4310422,22.3471502 32.3926147,22.345014 C32.67902,21.4590908 32.8813651,20.55089 32.9993496,19.6280407 C33.0005504,19.6198009 33.0014511,19.6115612 33.0026519,19.6033215 C33.0176627,19.4846084 33.0311724,19.3658953 33.0434812,19.2468771 C33.0437814,19.2419943 33.0443818,19.2374166 33.0449823,19.2325338 C33.0692997,18.9914456 33.0879131,18.7494418 33.1008223,18.5065224 C33.1023234,18.476005 33.1038245,18.4457926 33.1053255,18.4152751 C33.1095286,18.3255536 33.1128309,18.2358322 33.1155328,18.1458055 C33.1164335,18.1128466 33.1176343,18.0798877 33.1182348,18.0466237 C33.1209367,17.9288261 33.122738,17.8110285 33.122738,17.6926206 C33.122738,17.6874327 33.122738,17.6822446 33.122738,17.6770567 L33.1233384,17.6770567 C34.1146488,17.9532401 34.8471738,18.8791412 34.8471738,19.9704471 C34.8471738,21.281479 33.7979219,22.3480658 32.5081976,22.3480658 Z" id="Shape" fill-rule="nonzero"></path>
                    <path d="M10.2331857,20.0642959 C10.0862692,19.978568 9.91345825,19.978568 9.76654178,20.0642959 C8.69342419,20.6915818 8,22.0501146 8,23.5257237 C8,24.8900144 8.89703579,26 9.99986376,26 C11.1026917,26 12,24.8900144 12,23.5257237 C12,22.0501146 11.3063033,20.6915818 10.2331857,20.0642959 Z M9.99986376,24.7716586 C9.47407154,24.7716586 9.04667802,24.2128272 9.04667802,23.5257237 C9.04667802,22.6262195 9.41328795,21.7948499 9.99986376,21.3246255 C10.5864396,21.7948499 10.9530494,22.6262195 10.9530494,23.5257237 C10.9530494,24.2128272 10.5256559,24.7716586 9.99986376,24.7716586 Z" id="Shape" fill-rule="nonzero"></path>
                </g>
            </g>
        </g>
    </g>
</svg>