<?xml version="1.0" encoding="UTF-8" standalone="no"?>
<svg width="81px" height="81px" viewBox="0 0 81 81" version="1.1" xmlns="http://www.w3.org/2000/svg" xmlns:xlink="http://www.w3.org/1999/xlink">
    <!-- Generator: Sketch 50.2 (55047) - http://www.bohemiancoding.com/sketch -->
    <title>employeed</title>
    <desc>Created with Sketch.</desc>
    <defs></defs>
    <g id="Mail-file" stroke="none" stroke-width="1" fill="none" fill-rule="evenodd">
        <g id="employeed" transform="translate(1.000000, 1.000000)">
            <circle id="Oval-Copy-5" stroke="#F8BD00" fill="#F8BD00" cx="39.5" cy="39.5" r="39.5"></circle>
            <g id="business-person" transform="translate(21.000000, 21.000000)" fill="#FFFFFF" fill-rule="nonzero">
                <path d="M36.4354248,32.3772583 C36.7371902,32.3772583 36.9819336,32.1333618 36.9819336,31.8310318 C36.9819336,30.7871323 36.9819336,25.0626221 36.9819336,24.1206284 C36.9819336,23.2325516 36.2592773,22.5098953 35.3709183,22.5098953 L32.3134613,22.5098953 L32.3134613,20.5598526 C32.3134613,19.7265396 31.7127533,19.0487671 30.974289,19.0487671 L25.0973435,19.0487671 C24.3588791,19.0487671 23.7581711,19.7265396 23.7581711,20.5598526 L23.7581711,22.5098953 L20.7001495,22.5098953 C19.8120728,22.5098953 19.0894165,23.2325516 19.0894165,24.1206284 L19.0894165,24.2730637 L17.6017608,22.7213287 C18.9211731,21.6954956 20.2369156,20.1465835 20.6784134,18.4621734 C22.1858291,18.1618194 23.3251419,16.8285752 23.3251419,15.2347793 C23.3251419,13.6996994 22.2693863,12.4071045 20.8452454,12.0452118 L20.8452454,10.5502167 L21.0163116,10.5502167 C21.5402374,10.5502167 21.9664917,10.1245269 21.9664917,9.6008835 L21.9664917,3.85463716 C21.9664917,2.71673584 21.2641602,1.73973848 20.2696609,1.33465576 L20.2696609,0.917999268 C20.2696609,0.403671301 19.7866669,0 19.1695862,0 L8.11661528,0 C5.9201355,0 3.44757841,1.19774629 3.44757841,3.30699922 L3.44757841,11.2158508 C3.44757841,11.6313782 3.84532169,11.9249573 4.26480103,11.860878 C4.58322144,11.8134537 4.89289091,11.7434463 5.19296265,11.6590424 L5.19296265,12.1324387 C3.91730497,12.5849457 3.00156401,13.8044281 3.00156401,15.2339325 C3.00156401,16.7179184 3.98815918,17.9746628 5.34031681,18.3842621 C5.43064884,18.7512359 5.56163029,19.1184921 5.73354341,19.48349 C5.86254883,19.7567444 6.18746187,19.874176 6.46071627,19.7457352 C6.73397066,19.6167297 6.85112003,19.2912522 6.72239689,19.0179978 C6.04772949,17.5884934 6.37123104,17.1630859 6.28598022,13.035759 L6.28598022,11.2677917 C7.00948336,10.9544526 7.65196993,10.5682831 8.18605806,10.1931228 L8.04378511,10.5922775 C7.84420776,11.151207 8.46636963,11.6471863 9.02812198,11.3849411 C11.017685,10.4590378 12.8079529,8.64505766 13.9647675,7.27822115 C13.9656143,7.2861252 13.8541108,7.66947172 14.197937,7.93453979 C14.4141693,8.10137178 14.7167817,8.13355253 14.9688645,8.01555635 C15.3592682,7.83178711 15.7214432,7.64039608 16.0565186,7.44138334 L16.0565186,7.83122257 C16.0565186,9.33045195 17.276001,10.5502167 18.7760772,10.5502167 L19.7539215,10.5502167 C19.7618256,16.3907471 19.8098145,17.6579361 19.5309143,18.4870147 C19.0594941,19.8792572 17.9026794,21.1314849 16.66259,22.067833 C16.6617432,22.067833 16.6617432,22.067833 16.6617432,22.067833 C16.1750793,22.4384766 15.5588455,22.8356552 14.9651947,23.1385498 C13.6725998,23.8024902 13.0264434,23.776802 13.019104,23.7782135 C11.9424591,23.7782135 9.44703671,22.4610596 7.85945126,20.6885757 C7.65789795,20.4633103 7.31237793,20.444397 7.08795927,20.6462326 C6.86297607,20.8475037 6.84406279,21.1927414 7.04589844,21.4177246 C7.51421358,21.940239 8.04689022,22.4223862 8.60186768,22.8500518 L6.80680082,24.7224655 C2.84574125,26.1234589 0,29.9061127 0,34.3414154 C0,35.8073349 1.19266508,37 2.65858456,37 C3.31095121,37 32.6349869,36.9971772 34.4602585,36.9971772 C35.8502426,36.9971772 36.9816513,35.8657685 36.9816513,34.475502 L36.9816513,34.0165024 C36.9816513,33.7150192 36.736908,33.4702759 36.4354248,33.4702759 C36.1336594,33.4702759 35.888916,33.7150192 35.888916,34.0165024 L35.888916,34.475502 C35.888916,35.2630844 35.2478409,35.9041596 34.4602585,35.9041596 C20.2021942,35.9041596 21.4205474,35.9984436 21.1489868,35.9041596 C20.5872345,35.7119217 20.1821518,35.1013336 20.1821518,34.475502 L20.1821518,28.1677856 C20.6521606,28.6256562 21.2472229,28.9562149 21.9094696,29.1046982 L21.9094696,30.6521988 C21.9094696,31.1080933 22.2803955,31.4790191 22.73629,31.4790191 L24.1189346,31.4790191 C24.5748291,31.4790191 24.945755,31.1080933 24.945755,30.6521988 L24.945755,29.1927719 L31.1255951,29.1927719 L31.1255951,30.6521988 C31.1255951,31.1080933 31.496521,31.4790191 31.9524155,31.4790191 L33.3350601,31.4790191 C33.7909546,31.4790191 34.1618805,31.1080933 34.1618805,30.6521988 L34.1618805,29.1046982 C34.8241272,28.9559326 35.4189072,28.6256562 35.888916,28.1677856 L35.888916,31.8307495 C35.888916,32.1333618 36.1339417,32.3772583 36.4354248,32.3772583 Z M5.19324492,17.1362686 C3.73155977,16.2910996 3.72732544,14.1790237 5.19324492,13.3315964 L5.19324492,17.1362686 Z M22.2324067,15.2347793 C22.2324067,16.1606827 21.6568222,16.9547577 20.8443985,17.2774124 C20.8452454,17.2316818 20.8452454,17.4575119 20.8452454,13.191864 C21.657669,13.5145188 22.2324067,14.3085937 22.2324067,15.2347793 Z M15.1887665,6.67779541 L15.337532,5.87722778 C15.4707718,5.17207333 14.4844589,4.82598877 14.068367,5.38971708 C13.3389358,6.37631226 11.5503616,8.610054 9.44421387,9.91704561 L9.69996639,9.1972122 C9.79820255,8.92254639 9.69770809,8.6258621 9.4507065,8.459877 C9.17321777,8.2727203 8.79354097,8.29586792 8.548233,8.51464083 C7.80073544,9.17971041 6.33029936,10.2995453 4.54031372,10.6987 L4.54031372,3.30699922 C4.54031372,2.10699463 6.1781464,1.09273531 8.11689755,1.09273531 L19.1769257,1.09273531 L19.1769257,1.13507841 C19.1667633,1.45999146 19.2235031,1.61016846 19.0544128,2.22781372 C18.6326752,3.78406523 17.4219436,5.44730375 15.1887665,6.67779541 Z M18.7760772,9.45719913 C17.878685,9.45719913 17.1492539,8.72805025 17.1492539,7.83122257 L17.1492539,6.70545956 C19.1323242,5.18647001 19.8558273,3.48314669 20.1197662,2.48215483 C20.5728378,2.7714996 20.8737564,3.2784882 20.8737564,3.85463716 L20.8737564,9.45719913 L18.7760772,9.45719913 Z M16.8426895,23.5080643 C18.1589966,24.881958 18.5482712,25.2878876 18.6473541,25.3906402 L18.6473541,25.3912048 C18.6479187,25.3920517 18.6496124,25.39431 18.6507416,25.39431 C18.652153,25.3954392 18.6566696,25.4013672 18.6603394,25.4050369 C18.6611862,25.4050369 18.6611862,25.4050369 18.6611862,25.4058838 C18.6623154,25.4067307 18.6625977,25.4070129 18.6628799,25.4072952 C18.6625977,25.4070129 18.6625977,25.4070129 18.6623154,25.4067307 C18.6625977,25.4070129 18.6628799,25.4070129 18.6631622,25.4072952 C18.6631622,25.4081421 18.6640091,25.4081421 18.6640091,25.408989 C18.6651382,25.408989 18.6721954,25.4171753 18.6736069,25.4183044 C18.6736069,25.4183044 18.6736069,25.4191513 18.6741714,25.4191513 C18.6750183,25.4197159 18.6750183,25.4205627 18.6755829,25.4205627 C18.6764297,25.4214096 18.6764297,25.4219742 18.6769943,25.4219742 C18.6617508,25.4693985 17.0800933,30.4540329 17.0583572,30.5231934 C16.9533462,30.6617966 16.7049331,30.7157135 16.5205994,30.5977173 C16.1380997,30.3498687 13.8411255,28.8613663 13.7301865,28.7899475 C13.8411255,28.6019439 16.8345032,23.5204849 16.8426895,23.5080643 Z M14.4720383,30.5720291 L14.4720383,31.7522735 C14.4720383,31.8761978 14.3670273,31.9913711 14.2329407,31.9913711 L12.0940476,31.9913711 C11.9591141,31.9913711 11.85495,31.8761978 11.85495,31.7522735 L11.85495,30.5720291 L13.163353,29.7246018 L14.4720383,30.5720291 Z M15.1260986,24.2685471 C14.6795196,25.0247955 14.6490326,25.0758896 13.163353,27.5986938 C11.626297,24.9883804 11.6788025,25.0795593 11.3027954,24.4413071 C12.730606,25.0228195 13.463707,25.0555649 15.1260986,24.2685471 Z M7.64971163,25.4211274 C7.65140532,25.4205627 7.65196993,25.4197159 7.65196993,25.4197159 L7.65196993,25.4191513 C7.94385527,25.1269836 7.60482788,25.4696807 9.48429874,23.5080643 C9.88063046,24.1813202 12.1361084,28.0088577 12.5965195,28.7899475 C9.51986694,30.7826157 9.69488525,30.7061157 9.46905518,30.6485291 C9.3843689,30.6273575 9.31379696,30.5830383 9.26863095,30.5231934 C9.27512358,30.5443649 7.6855621,25.5348892 7.64971163,25.4219742 L7.64971163,25.4211274 Z M10.3593902,35.9072647 L6.26988985,35.9072647 L6.26988985,32.3044281 C6.26988985,32.0029449 6.02514648,31.7582016 5.72366333,31.7582016 C5.42189791,31.7582016 5.17715454,32.0029449 5.17715454,32.3044281 L5.17715454,35.9072647 L2.65858456,35.9072647 C1.79534912,35.9072647 1.09301758,35.2049331 1.09301758,34.3414154 C1.09301758,30.5711822 3.39591984,27.3285446 6.66932675,25.9473114 C8.34498593,31.2116928 8.23856352,30.9209366 8.28937529,31.0157852 C8.69248198,31.7514267 9.68613432,31.9772568 10.4000396,31.5148697 L10.7622146,31.2802887 C10.7986298,31.5010376 10.5866318,32.3024521 11.3121109,32.8292007 L10.3593902,35.9072647 Z M11.5023728,35.9072647 L12.3774643,33.0841064 L13.9983597,33.0841064 L14.90168,35.9072647 L11.5023728,35.9072647 Z M16.0491791,35.9072647 L15.0546799,32.7992783 C15.7299118,32.2682953 15.5294876,31.5049897 15.5647735,31.2802887 L15.9269485,31.5148697 C16.7625198,32.0560151 17.8566665,31.5992737 18.0791092,30.9186783 L19.0894165,27.7364502 L19.0894165,34.475502 C19.0894165,35.0067673 19.254837,35.5007706 19.5368423,35.9072647 L16.0491791,35.9072647 Z M24.8509063,20.5598526 C24.8509063,20.3083344 24.9991074,20.1415024 25.0973435,20.1415024 L30.974289,20.1415024 C31.072525,20.1415024 31.220726,20.3083344 31.220726,20.5598526 L31.220726,22.5098953 L24.8509063,22.5098953 L24.8509063,20.5598526 Z M23.8530197,30.3862839 L23.0024872,30.3862839 L23.0024872,29.1927719 L23.8530197,29.1927719 L23.8530197,30.3862839 Z M23.8530197,28.1000366 C23.5583115,28.1000366 23.29776,28.1000366 23.0024872,28.1000366 L23.0024872,26.9090652 L23.8530197,26.9090652 L23.8530197,28.1000366 Z M33.0691452,30.3862839 L32.2186127,30.3862839 L32.2186127,29.1927719 L33.0691452,29.1927719 L33.0691452,30.3862839 Z M33.0691452,28.1000366 L32.2186127,28.1000366 L32.2186127,26.9090652 L33.0691452,26.9090652 L33.0691452,28.1000366 Z M34.1618805,27.9724426 L34.1618805,26.6428681 C34.1618805,26.1869736 33.7912369,25.81633 33.3353424,25.81633 L31.9524155,25.81633 C31.496521,25.81633 31.1258774,26.1869736 31.1258774,26.6428681 L31.1258774,28.1000366 L24.945755,28.1000366 L24.945755,26.6428681 C24.945755,26.1869736 24.5751114,25.81633 24.1192169,25.81633 L22.73629,25.81633 C22.2803955,25.81633 21.9097519,26.1869736 21.9097519,26.6428681 L21.9097519,27.9727249 C21.1060791,27.7062454 20.4802475,27.0459747 20.2640152,26.2211304 C20.1319046,25.7147065 20.2019119,25.4225388 20.1821518,24.1206284 C20.1821518,23.8352356 20.4147568,23.6026306 20.7001495,23.6026306 L35.3709183,23.6026306 C35.6565933,23.6026306 35.888916,23.8352356 35.888916,24.1206284 L35.888916,25.5828781 C35.888916,26.694809 35.1640015,27.6401901 34.1618805,27.9724426 Z" id="Shape"></path>
                <path d="M16.0316772,15.2500229 C16.0316772,15.7265244 16.4172821,16.1124115 16.8940659,16.1124115 C17.3700027,16.1124115 17.7558899,15.7265244 17.7558899,15.2500229 C17.7558899,14.774086 17.3700027,14.3881988 16.8940659,14.3881988 C16.4181289,14.3881988 16.0316772,14.7738037 16.0316772,15.2500229 Z" id="Shape"></path>
                <path d="M18.5683136,13.1421814 C19.098732,13.1421814 19.3321838,12.4471894 18.8596344,12.1332856 C17.6963272,11.4018784 15.8289947,11.7632065 15.6198196,11.806961 C15.3248291,11.8679351 15.136261,12.15728 15.1966705,12.4522705 C15.257927,12.747261 15.5469895,12.9375229 15.8428269,12.8762665 C16.1939926,12.8042832 17.0733184,12.6978608 17.7609711,12.8573532 C18.288002,12.9770432 18.2795334,13.1421814 18.5683136,13.1421814 Z" id="Shape"></path>
                <path d="M8.57053373,15.2500229 C8.57053373,15.7587051 9.01259615,16.1440277 9.46369169,16.1118469 C9.9255142,16.0957565 10.2950287,15.716362 10.2950287,15.2500229 C10.2950287,14.7879181 9.93059542,14.4107818 9.47328951,14.3896103 C9.04421236,14.3444443 8.57053373,14.7212983 8.57053373,15.2500229 Z" id="Shape"></path>
                <path d="M10.706604,11.806961 C10.4974289,11.7632065 8.62953182,11.4018784 7.46678926,12.1332856 C6.99395752,12.4474716 7.22853853,13.1421814 7.75811006,13.1421814 C8.04914852,13.1421814 8.03446964,12.9790191 8.56601713,12.8567886 C9.25395206,12.6978608 10.1318665,12.8042832 10.4835968,12.8762665 C10.7780227,12.9375229 11.0679321,12.7489548 11.1297531,12.4531174 C11.1910095,12.1581269 11.0015945,11.8679351 10.706604,11.806961 Z" id="Shape"></path>
                <path d="M14.2758484,18.6645737 C14.2758484,19.0171509 14.1109924,19.331337 13.8546753,19.5351486 C13.1365356,20.1096039 12.0508575,19.5992279 12.0508575,18.6645737 C12.0508575,18.3636551 11.8055496,18.1183472 11.5043487,18.1183472 C10.3534622,18.1183472 11.0645447,20.8700867 13.163353,20.8700867 C14.8844604,20.8700867 15.5972366,19.053566 15.3211594,18.4424133 C15.0800857,17.9029617 14.2758484,18.0810852 14.2758484,18.6645737 Z" id="Shape"></path>
            </g>
        </g>
    </g>
</svg>