<?xml version="1.0" encoding="UTF-8" standalone="no"?>
<svg width="81px" height="81px" viewBox="0 0 81 81" version="1.1" xmlns="http://www.w3.org/2000/svg" xmlns:xlink="http://www.w3.org/1999/xlink">
    <!-- Generator: Sketch 50.2 (55047) - http://www.bohemiancoding.com/sketch -->
    <title>friends</title>
    <desc>Created with Sketch.</desc>
    <defs></defs>
    <g id="Mail-file" stroke="none" stroke-width="1" fill="none" fill-rule="evenodd">
        <g id="friends" transform="translate(1.000000, 1.000000)">
            <circle id="Oval-Copy-8" stroke="#F8BD00" fill="#F8BD00" cx="39.5" cy="39.5" r="39.5"></circle>
            <g id="friends-copy" transform="translate(23.000000, 23.000000)" fill="#FFFFFF" fill-rule="nonzero">
                <path d="M34,5.95962891 C34,2.67351562 31.3264844,0 28.0403711,0 C26.307832,0 24.7461563,0.743617188 23.6562305,1.92783984 C21.4909219,0.950074219 19.1791211,0.453289062 16.7733555,0.453289062 C7.52449219,0.453289062 0,7.97784766 0,17.2266445 C0,26.4754414 7.52449219,34 16.7733555,34 C26.0222187,34 33.5467109,26.4755078 33.5467109,17.2266445 C33.5467109,14.8208125 33.0499922,12.5090781 32.0721602,10.3437031 C33.2563828,9.25377734 34,7.69216797 34,5.95962891 Z M28.0403711,1.67735547 C30.4016445,1.67735547 32.3227109,3.59842188 32.3227109,5.95969531 C32.3227109,8.32096875 30.4016445,10.2420352 28.0403711,10.2420352 C25.6790977,10.2420352 23.7580313,8.32096875 23.7580313,5.95969531 C23.7580312,3.59835547 25.6790977,1.67735547 28.0403711,1.67735547 Z M16.7733555,32.3226445 C8.44939844,32.3226445 1.67735547,25.5506016 1.67735547,17.2266445 C1.67735547,8.9026875 8.44939844,2.13064453 16.7733555,2.13064453 C18.8370625,2.13064453 20.8236719,2.53545703 22.6916797,3.33465625 C22.3011445,4.12721484 22.0808086,5.01805469 22.0808086,5.95969531 C22.0808086,9.245875 24.7543242,11.9192578 28.0404375,11.9192578 C28.9820781,11.9192578 29.872918,11.6988555 30.6654766,11.3083867 C31.464543,13.1763281 31.8693555,15.1628711 31.8693555,17.2267109 C31.8693555,25.5506016 25.0973125,32.3226445 16.7733555,32.3226445 Z" id="Shape"></path>
                <path d="M30.2661758,5.12098437 L25.8146328,5.12098437 C25.3515156,5.12098437 24.9759883,5.49644531 24.9759883,5.95962891 C24.9759883,6.4228125 25.3514492,6.79827344 25.8146328,6.79827344 L30.2661758,6.79827344 C30.729293,6.79827344 31.1048203,6.4228125 31.1048203,5.95962891 C31.1048203,5.49644531 30.729293,5.12098437 30.2661758,5.12098437 Z" id="Shape"></path>
                <path d="M21.9262813,20.2283398 C21.9074219,20.2269453 19.972875,20.3367148 19.2708281,18.1502227 C19.6538594,17.8576367 20.0088008,17.4964531 20.3250273,17.0682656 C21.0038984,16.1491367 21.4465625,15.0035625 21.6145039,13.7648203 C21.662582,13.7077773 21.7028906,13.6426992 21.7333711,13.57025 C22.0242305,12.8775664 22.1717188,12.1381992 22.1717188,11.3728672 C22.1717188,8.42522656 19.9398711,6.02709766 17.1965625,6.02709766 C16.4921914,6.02709766 15.8086719,6.18560937 15.1624727,6.49851562 C14.9241406,6.51989844 14.6905234,6.56339453 14.4658711,6.62833984 C12.1671523,7.29246875 10.8659219,10.0638672 11.5652461,12.8062461 C11.6354375,13.0814336 11.7247539,13.3519727 11.8306719,13.6104258 C11.8594258,13.6806172 11.8980078,13.7437031 11.9433633,13.7996836 C12.2048047,15.6666289 13.0788438,17.2265117 14.2773438,18.1425859 C13.6975508,20.3129414 11.6394219,20.2269453 11.6207617,20.2282734 C9.63939844,20.2920234 8.04697656,21.9224961 8.04697656,23.9190664 L8.04697656,26.3313398 C8.04697656,27.2372539 8.78401953,27.9742969 9.68993359,27.9742969 L23.8559805,27.9742969 C24.7618945,27.9742969 25.4989375,27.2372539 25.4989375,26.3313398 L25.4989375,23.9190664 C25.4989375,21.9229609 23.9070469,20.2926211 21.9262813,20.2283398 Z M14.8848945,8.07865234 C15.0485195,8.03137109 15.2217734,8.00334766 15.4000078,7.99517969 C15.510707,7.99013281 15.6188828,7.96084766 15.7170313,7.90938281 C16.1875859,7.66215234 16.6853672,7.53677734 17.1964961,7.53677734 C19.0062656,7.53677734 20.495625,9.08065625 20.648293,11.0409023 C20.2718359,10.8040312 19.8268477,10.6664375 19.3501172,10.6664375 L15.9344453,10.6664375 C15.7863594,10.6664375 15.6458438,10.6200859 15.5283047,10.5322305 C15.4275664,10.4569922 15.3497383,10.3561211 15.3033203,10.2403086 C15.1636016,9.89240625 14.8182891,9.67412891 14.4443555,9.69863281 C14.0686953,9.72253906 13.7527344,9.98344922 13.6579063,10.3477539 C13.5144688,10.8989258 13.2611953,11.4165625 12.9204648,11.8703828 C12.694418,10.1114805 13.5071641,8.47669141 14.8848945,8.07865234 Z M13.4325898,13.5485352 C13.9646367,13.0516172 14.4026523,12.4606016 14.7196094,11.808625 C15.0796641,12.0494141 15.4972266,12.1760508 15.9345117,12.1760508 L19.3501836,12.1760508 C19.7115664,12.1760508 20.0250703,12.3823086 20.1809922,12.6829297 C20.1683086,14.6629648 19.3278047,16.3641602 18.1319609,17.1104336 C18.0939766,17.1286289 17.541543,17.5146484 16.7762773,17.5146484 C15.1587539,17.5146484 13.7368633,15.799043 13.4325898,13.5485352 Z M19.0045391,20.5919141 C18.3625234,21.0588828 17.5834453,21.3172695 16.7762773,21.3172695 C15.9677812,21.3172695 15.1874414,21.0581523 14.5448281,20.5897227 C15.0434727,20.1179062 15.4266367,19.524168 15.6452461,18.855125 C16.0087539,18.9655586 16.3874023,19.0242617 16.7760781,19.0242617 C17.1610352,19.0242617 17.5377578,18.9664219 17.9019297,18.8575156 C18.1212695,19.526625 18.5050977,20.1202305 19.0045391,20.5919141 Z M23.9895234,26.3314062 L23.9893242,26.3314062 C23.9893242,26.4049844 23.9295586,26.46475 23.8559805,26.46475 L9.68993359,26.46475 C9.61635547,26.46475 9.55658984,26.4049844 9.55658984,26.3314062 L9.55658984,23.9191328 C9.55658984,22.7147227 10.5364141,21.7348984 11.7408242,21.7348984 C11.7581563,21.7348984 12.6667266,21.6828359 13.2064766,21.4434414 C14.1770703,22.3285039 15.4498125,22.8268828 16.7763438,22.8268828 C18.1020117,22.8268828 19.3740898,22.3289687 20.3445508,21.4448359 C20.9364961,21.7124531 21.787625,21.7349648 21.8052891,21.7349648 C23.0096328,21.7349648 23.9895234,22.7147891 23.9895234,23.9191992 L23.9895234,26.3314062 Z" id="Shape"></path>
            </g>
        </g>
    </g>
</svg>