<?xml version="1.0" encoding="UTF-8"?>
<svg width="280px" height="12px" viewBox="0 0 280 12" version="1.1" xmlns="http://www.w3.org/2000/svg" xmlns:xlink="http://www.w3.org/1999/xlink">
    <!-- Generator: Sketch 52.6 (67491) - http://www.bohemiancoding.com/sketch -->
    <title>Group 3</title>
    <desc>Created with Sketch.</desc>
    <g id="Mail-file" stroke="none" stroke-width="1" fill="none" fill-rule="evenodd">
        <g id="1-Login" transform="translate(-583.000000, -577.000000)">
            <g id="Group-3" transform="translate(583.000000, 574.000000)">
                <path d="M125.9775,7.415 C125.9875,6.8549972 126.084999,6.32750247 126.27,5.8325 C126.455001,5.33749752 126.722498,4.90750183 127.0725,4.5425 C127.422502,4.17749818 127.852497,3.88750108 128.3625,3.6725 C128.872503,3.45749892 129.457497,3.35 130.1175,3.35 C130.777503,3.35 131.362497,3.45749892 131.8725,3.6725 C132.382503,3.88750108 132.812498,4.17749818 133.1625,4.5425 C133.512502,4.90750183 133.779999,5.33749752 133.965,5.8325 C134.150001,6.32750247 134.2475,6.8549972 134.2575,7.415 C134.2875,8.30500445 134.2875,9.19499555 134.2575,10.085 C134.2375,10.6450028 134.135001,11.1724975 133.95,11.6675 C133.764999,12.1625025 133.497502,12.5949982 133.1475,12.965 C132.797498,13.3350018 132.370003,13.624999 131.865,13.835 C131.359997,14.045001 130.777503,14.15 130.1175,14.15 C129.457497,14.15 128.875003,14.045001 128.37,13.835 C127.864997,13.624999 127.437502,13.3350018 127.0875,12.965 C126.737498,12.5949982 126.470001,12.1625025 126.285,11.6675 C126.099999,11.1724975 125.9975,10.6450028 125.9775,10.085 C125.9475,9.19499555 125.9475,8.30500445 125.9775,7.415 Z M132.8325,7.49 C132.8125,7.01999765 132.735001,6.61000175 132.6,6.26 C132.464999,5.90999825 132.277501,5.62000115 132.0375,5.39 C131.797499,5.15999885 131.515002,4.98750058 131.19,4.8725 C130.864998,4.75749943 130.507502,4.7 130.1175,4.7 C129.727498,4.7 129.370002,4.75749943 129.045,4.8725 C128.719998,4.98750058 128.437501,5.15999885 128.1975,5.39 C127.957499,5.62000115 127.767501,5.90999825 127.6275,6.26 C127.487499,6.61000175 127.4125,7.01999765 127.4025,7.49 C127.3825,7.94000225 127.3725,8.35999805 127.3725,8.75 C127.3725,9.14000195 127.3825,9.55999775 127.4025,10.01 C127.4125,10.4800023 127.487499,10.8899982 127.6275,11.24 C127.767501,11.5900018 127.957499,11.8799988 128.1975,12.11 C128.437501,12.3400011 128.719998,12.5124994 129.045,12.6275 C129.370002,12.7425006 129.727498,12.8 130.1175,12.8 C130.507502,12.8 130.864998,12.7425006 131.19,12.6275 C131.515002,12.5124994 131.797499,12.3400011 132.0375,12.11 C132.277501,11.8799988 132.464999,11.5900018 132.6,11.24 C132.735001,10.8899982 132.8125,10.4800023 132.8325,10.01 C132.8525,9.55999775 132.8625,9.14000195 132.8625,8.75 C132.8625,8.35999805 132.8525,7.94000225 132.8325,7.49 Z M140.4825,3.5 C140.972502,3.5 141.434998,3.5599994 141.87,3.68 C142.305002,3.8000006 142.687498,3.98499875 143.0175,4.235 C143.347502,4.48500125 143.609999,4.80499805 143.805,5.195 C144.000001,5.58500195 144.0975,6.05499725 144.0975,6.605 C144.0975,7.41500405 143.895002,8.0599976 143.49,8.54 C143.084998,9.0200024 142.567503,9.359999 141.9375,9.56 L144.2025,13.505 C144.2325,13.5650003 144.2475,13.6199997 144.2475,13.67 C144.2475,13.7600004 144.215,13.8374997 144.15,13.9025 C144.085,13.9675003 144.0075,14 143.9175,14 L143.2725,14 C143.072499,14 142.925,13.9500005 142.83,13.85 C142.735,13.7499995 142.6675,13.6650003 142.6275,13.595 L140.4525,9.77 L137.8725,9.77 L137.8725,13.595 C137.8725,13.7050005 137.8325,13.7999996 137.7525,13.88 C137.6725,13.9600004 137.577501,14 137.4675,14 L136.8525,14 C136.742499,14 136.6475,13.9600004 136.5675,13.88 C136.4875,13.7999996 136.4475,13.7050005 136.4475,13.595 L136.4475,3.905 C136.4475,3.79499945 136.4875,3.7000004 136.5675,3.62 C136.6475,3.5399996 136.742499,3.5 136.8525,3.5 L140.4825,3.5 Z M137.8725,8.42 L140.4075,8.42 C141.127504,8.42 141.684998,8.27750143 142.08,7.9925 C142.475002,7.70749858 142.6725,7.2450032 142.6725,6.605 C142.6725,5.9649968 142.475002,5.51250132 142.08,5.2475 C141.684998,4.98249867 141.127504,4.85 140.4075,4.85 L137.8725,4.85 L137.8725,8.42 Z" id="OR" fill="#3B3B3B"></path>
                <path d="M112.5,9.5 L0.853235604,9.5" id="Line" stroke="#979797" stroke-linecap="square"></path>
                <path d="M279.5,9.5 L167.853236,9.5" id="Line-Copy" stroke="#979797" stroke-linecap="square"></path>
            </g>
        </g>
    </g>
</svg>