<?xml version="1.0" encoding="UTF-8"?>
<svg width="81px" height="81px" viewBox="0 0 81 81" version="1.1" xmlns="http://www.w3.org/2000/svg" xmlns:xlink="http://www.w3.org/1999/xlink">
    <!-- Generator: Sketch 52.6 (67491) - http://www.bohemiancoding.com/sketch -->
    <title>Group 7</title>
    <desc>Created with Sketch.</desc>
    <g id="Main-file" stroke="none" stroke-width="1" fill="none" fill-rule="evenodd">
        <g id="8-ABout-us" transform="translate(-169.000000, -957.000000)">
            <g id="Group-7" transform="translate(170.000000, 958.000000)">
                <circle id="Oval-Copy" stroke="#F8BD00" fill="#F8BD00" cx="39.5" cy="39.5" r="39.5"></circle>
                <g id="time-is-money" transform="translate(22.000000, 23.000000)" fill="#FFFFFF" fill-rule="nonzero">
                    <path d="M26.7291242,17.7617108 C26.7291242,18.1441892 26.4191383,18.4541752 26.0366599,18.4541752 C25.6541815,18.4541752 25.3441955,18.1441892 25.3441955,17.7617108 C25.3441955,17.3792324 25.6541815,17.0692464 26.0366599,17.0692464 C26.4191383,17.0692464 26.7291242,17.3792324 26.7291242,17.7617108 Z" id="Shape"></path>
                    <path d="M18.4195519,9.45213849 C18.4195519,9.83461689 18.109566,10.1446029 17.7270876,10.1446029 C17.3446092,10.1446029 17.0346232,9.83461689 17.0346232,9.45213849 C17.0346232,9.0696601 17.3446092,8.75967413 17.7270876,8.75967413 C18.109566,8.75967413 18.4195519,9.0696601 18.4195519,9.45213849 Z" id="Shape"></path>
                    <path d="M18.4195519,26.0712831 C18.4195519,26.4537615 18.109566,26.7637475 17.7270876,26.7637475 C17.3446092,26.7637475 17.0346232,26.4537615 17.0346232,26.0712831 C17.0346232,25.6888047 17.3446092,25.3788187 17.7270876,25.3788187 C18.109566,25.3788187 18.4195519,25.6888047 18.4195519,26.0712831 Z" id="Shape"></path>
                    <path d="M10.1099796,17.7617108 C10.1099796,18.1441892 9.79999367,18.4541752 9.41751527,18.4541752 C9.03503688,18.4541752 8.72505092,18.1441892 8.72505092,17.7617108 C8.72505092,17.3792324 9.03503688,17.0692464 9.41751527,17.0692464 C9.79999367,17.0692464 10.1099796,17.3792324 10.1099796,17.7617108 Z" id="Shape"></path>
                    <path d="M17.7270876,5.78207739 C11.2336112,5.78207739 5.74745418,11.267964 5.74745418,17.7617108 C5.74745418,24.2554576 11.2336112,29.7413442 17.7270876,29.7413442 C24.2205639,29.7413442 29.706721,24.2554576 29.706721,17.7617108 C29.706721,11.267964 24.2205639,5.78207739 17.7270876,5.78207739 Z M17.7270876,28.3564155 C11.9842318,28.3564155 7.13238289,23.5045666 7.13238289,17.7617108 C7.13238289,12.018855 11.9842318,7.16700611 17.7270876,7.16700611 C23.4699434,7.16700611 28.3217923,12.018855 28.3217923,17.7617108 C28.3217923,23.5045666 23.4699434,28.3564155 17.7270876,28.3564155 Z" id="Shape"></path>
                    <path d="M15.6491535,9.68503371 C15.5231034,9.3241949 15.1281823,9.13349673 14.7670729,9.25954684 C12.1946761,10.1575866 10.1229633,12.2292993 9.22492363,14.8016961 C9.09887351,15.1628055 9.28957168,15.5577266 9.6504105,15.6837768 C10.0128723,15.8103678 10.4069819,15.6177762 10.5324911,15.2580193 C11.2925789,13.080814 13.0461908,11.3272021 15.2236666,10.5671143 C15.5845055,10.4410642 15.7752037,10.0461431 15.6491535,9.68503371 Z" id="Shape"></path>
                    <path d="M17.7270876,17.0692464 C17.3451502,17.0692464 17.0346232,16.7587195 17.0346232,16.3767821 C17.0346232,15.9948447 17.3451502,15.6843177 17.7270876,15.6843177 C17.9724256,15.6843177 18.2312882,15.8095564 18.4760851,16.0462385 C18.7509069,16.312134 19.189107,16.3051012 19.455273,16.0302794 C19.7211685,15.7554576 19.7138652,15.316987 19.4390434,15.0510915 C19.0876719,14.7108102 18.7360298,14.518489 18.4195519,14.4135375 L18.4195519,13.6069246 C18.4195519,13.2244462 18.109566,12.9144603 17.7270876,12.9144603 C17.3446092,12.9144603 17.0346232,13.2244462 17.0346232,13.6069246 L17.0346232,14.4186768 C16.2285514,14.7043183 15.6496945,15.474144 15.6496945,16.3767821 C15.6496945,17.5223237 16.5815459,18.4541752 17.7270876,18.4541752 C18.1090249,18.4541752 18.4195519,18.7649726 18.4195519,19.1466395 C18.4195519,19.5285769 18.1090249,19.8391039 17.7270876,19.8391039 C17.4311672,19.8391039 17.1119845,19.6530041 16.8279659,19.3154277 C16.5818165,19.0224828 16.1449688,18.9848841 15.8522944,19.2310336 C15.5596201,19.4769125 15.5217509,19.9137602 15.7679003,20.2064346 C16.137936,20.6467986 16.5734312,20.9538092 17.0346232,21.1082612 L17.0346232,21.9164969 C17.0346232,22.2989753 17.3446092,22.6089613 17.7270876,22.6089613 C18.109566,22.6089613 18.4195519,22.2989753 18.4195519,21.9164969 L18.4195519,21.1050153 C19.2256237,20.8191033 19.8044807,20.0495481 19.8044807,19.1466395 C19.8044807,18.0010979 18.8726292,17.0692464 17.7270876,17.0692464 Z" id="Shape"></path>
                    <path d="M29.2219959,2.80448065 C27.5349256,2.80448065 25.9457739,3.47746945 24.7769698,4.66872454 C23.8505283,4.15208125 22.8808076,3.73741406 21.8818737,3.43148552 L21.8818737,2.11201629 C21.8818737,0.966474652 20.9500223,0.0346232179 19.8044807,0.0346232179 L15.6496945,0.0346232179 C14.5041529,0.0346232179 13.5723014,0.966474652 13.5723014,2.11201629 L13.5723014,3.43148552 C12.5733675,3.73741406 11.6033764,4.15208125 10.6772053,4.66872454 C9.50840122,3.47746945 7.9192496,2.80448065 6.23217923,2.80448065 C2.79582485,2.80448065 0,5.6003055 0,9.03665988 C0,11.2912265 1.22263238,13.3591522 3.16369654,14.4608738 C2.90239941,15.5471773 2.76985743,16.6548498 2.76985743,17.7617108 C2.76985743,21.7274217 4.47342792,25.6003533 7.46022149,28.4697524 L5.67523229,31.964804 C5.23486824,32.8923275 5.90866853,33.9653768 6.94006172,33.9653768 C7.28467097,33.9653768 7.61250956,33.8401381 7.86866723,33.6104888 L10.8578952,30.9536978 C13.0002068,32.1097887 15.3645939,32.7189409 17.7270876,32.7189409 C20.0898517,32.7189409 22.4542388,32.1097887 24.5962799,30.9536978 L27.5830734,33.6083248 C28.1486762,34.1160419 29.0342731,34.0852056 29.5593018,33.4985043 C29.9352883,33.0773453 30.0213054,32.475226 29.7789429,31.964804 L27.9939537,28.4697524 C30.9807472,25.6003533 32.6843177,21.7274217 32.6843177,17.7617108 C32.6843177,16.6545793 32.5517757,15.5469068 32.2904786,14.4608738 C34.2296493,13.3626686 35.4541752,11.2936609 35.4541752,9.03665988 C35.4541752,5.6003055 32.6583503,2.80448065 29.2219959,2.80448065 Z M15.6496945,1.41955193 L19.8044807,1.41955193 C20.186418,1.41955193 20.496945,1.73007892 20.496945,2.11201629 L20.496945,3.08173687 C18.6662424,2.71575866 16.7879328,2.71575866 14.9572301,3.08173687 L14.9572301,2.11201629 C14.9572301,1.73007892 15.2677571,1.41955193 15.6496945,1.41955193 Z M1.38492872,9.03665988 C1.38492872,6.36390977 3.55942912,4.18940937 6.23217923,4.18940937 C7.43804095,4.18940937 8.57925469,4.63220785 9.46214675,5.42313198 C6.73232241,7.29630222 4.6359948,10.0226101 3.56808492,13.0864944 C2.2215663,12.1984629 1.38492872,10.6815332 1.38492872,9.03665988 Z M6.9462831,32.5774726 C6.94438962,32.5790956 6.94195519,32.580989 6.93735681,32.5804481 C6.93167639,32.5801776 6.92924196,32.5777432 6.92815999,32.5763906 C6.92356161,32.5709808 6.92464358,32.5642184 6.92545508,32.5609725 L8.53408226,29.4121531 C8.88383085,29.6921143 9.24521068,29.9563869 9.61605782,30.2041593 L6.9462831,32.5774726 Z M28.5268267,32.5755792 C28.5249332,32.5777432 28.5224988,32.5801776 28.5168183,32.5804481 C28.5127609,32.5812596 28.5097855,32.5790956 28.5054576,32.5753087 L25.8381173,30.2041593 C26.2089645,29.9563869 26.5703443,29.6921143 26.9203634,29.4121531 L28.5287201,32.5609725 C28.529802,32.5644889 28.530884,32.5709808 28.5268267,32.5755792 Z M17.7270876,31.3340122 C10.4862367,31.3340122 4.15478615,25.0558491 4.15478615,17.7617108 C4.15478615,10.5205894 10.4383593,4.18940937 17.7270876,4.18940937 C25.0049961,4.18940937 31.299389,10.5100401 31.299389,17.7617108 C31.299389,25.0607179 24.9630696,31.3340122 17.7270876,31.3340122 Z M31.8858198,13.0862239 C30.8173689,10.0220691 28.7210412,7.2957612 25.9920284,5.42313198 C26.8749205,4.63220785 28.0161342,4.18940937 29.2219959,4.18940937 C31.894746,4.18940937 34.0692464,6.36390977 34.0692464,9.03665988 C34.0692464,10.6820742 33.2326089,12.1987334 31.8858198,13.0862239 Z" id="Shape"></path>
                </g>
            </g>
        </g>
    </g>
</svg>