<?xml version="1.0" encoding="UTF-8" standalone="no"?>
<svg width="81px" height="81px" viewBox="0 0 81 81" version="1.1" xmlns="http://www.w3.org/2000/svg" xmlns:xlink="http://www.w3.org/1999/xlink">
    <!-- Generator: Sketch 50.2 (55047) - http://www.bohemiancoding.com/sketch -->
    <title>simpel process</title>
    <desc>Created with Sketch.</desc>
    <defs></defs>
    <g id="Mail-file" stroke="none" stroke-width="1" fill="none" fill-rule="evenodd">
        <g id="8-ABout-us" transform="translate(-807.000000, -972.000000)">
            <g id="simpel-process" transform="translate(808.000000, 973.000000)">
                <circle id="Oval-Copy-2" stroke="#F8BD00" fill="#F8BD00" cx="39.5" cy="39.5" r="39.5"></circle>
                <g id="simple-process" transform="translate(23.000000, 23.000000)" fill="#FFFFFF" fill-rule="nonzero">
                    <path d="M32.5833555,12.747875 L29.7642109,12.747875 C29.5637305,12.1408555 29.3199531,11.5491094 29.0346055,10.9770195 L31.025,8.986625 C31.0251328,8.98649219 31.0252656,8.98635937 31.0253984,8.98622656 C31.5784961,8.43286328 31.5783633,7.53591406 31.025,6.98275 L27.01725,2.975 C26.4567148,2.43996484 25.5746406,2.43996484 25.0141055,2.975 L23.0208555,4.96685547 C22.448832,4.68157422 21.8570195,4.43773047 21.25,4.23725 L21.25,1.41664453 C21.25,0.634246094 20.6157539,0 19.8333555,0 L14.1667109,0 C13.3842461,0 12.75,0.634246094 12.75,1.41664453 L12.75,4.23725 C12.1423164,4.43713281 11.5497734,4.68051172 10.9770195,4.96539453 L8.986625,2.975 C8.42608984,2.43916797 7.54328516,2.43916797 6.98275,2.975 L2.975,6.98275 C2.42196875,7.53598047 2.42196875,8.43273047 2.975,8.98589453 L4.96685547,10.9791445 C4.68157422,11.551168 4.43773047,12.1429805 4.23725,12.75 L1.41664453,12.75 C0.634246094,12.75 0,13.3842461 0,14.1666445 L0,17 L1.41664453,17 L1.41664453,14.1666445 L4.75926953,14.1666445 C5.07496484,14.1667109 5.35254297,13.9578633 5.44,13.6545195 C5.68570312,12.7962187 6.02636719,11.968 6.45575,11.1852695 C6.60855078,10.9089531 6.56000781,10.5649023 6.33675,10.3416445 L3.97726953,7.98428906 L7.98428906,3.97726953 L10.3444336,6.33675 C10.5675586,6.55967578 10.9112109,6.60815234 11.1873281,6.45575 C11.9694609,6.02663281 12.7969492,5.68596875 13.6544531,5.44 C13.9577969,5.35254297 14.1666445,5.07496484 14.1665781,4.75926953 L14.1665781,1.41664453 L19.8332227,1.41664453 L19.8332227,4.75926953 C19.8331562,5.07496484 20.0420039,5.35254297 20.3453477,5.44 C21.2038477,5.68576953 22.0322656,6.02643359 22.8153281,6.45575 C23.0914453,6.60815234 23.4350977,6.55967578 23.6582227,6.33675 L26.0155781,3.97726953 L30.0225977,7.98428906 L27.6631172,10.3437695 C27.4398594,10.5670273 27.3913164,10.9110781 27.5441172,11.1873945 C27.9733672,11.9694609 28.3140312,12.7969492 28.5598672,13.6545195 C28.6473242,13.9578633 28.9249023,14.1667109 29.2405977,14.1666445 L32.5832227,14.1666445 L32.5832227,17 L34,17 L34,14.1645195 C34,13.3821211 33.3657539,12.747875 32.5833555,12.747875 Z" id="Shape"></path>
                    <path d="M17,9.20835547 C13.0880078,9.20835547 9.91664453,12.3796523 9.91664453,16.2917109 L9.91664453,17 L11.3332891,17 L11.3332891,16.2916445 C11.3333555,13.1620508 13.8704063,10.625 17,10.625 C20.1295937,10.625 22.6666445,13.1620508 22.6666445,16.2916445 L22.6666445,17 L24.0832891,17 L24.0832891,16.2916445 C24.0833555,12.3796523 20.9119922,9.20835547 17,9.20835547 Z" id="Shape"></path>
                    <rect id="Rectangle-path" x="16.2914453" y="2.83335547" width="1.41664453" height="1.41664453"></rect>
                    <rect id="Rectangle-path" x="7.08355469" y="7.08355469" width="1.41664453" height="1.41664453"></rect>
                    <rect id="Rectangle-path" x="2.83335547" y="15.5835547" width="1.41664453" height="1.41664453"></rect>
                    <rect id="Rectangle-path" x="29.75" y="15.5835547" width="1.41664453" height="1.41664453"></rect>
                    <rect id="Rectangle-path" x="25.5" y="7.08355469" width="1.41664453" height="1.41664453"></rect>
                    <path d="M8.5,26.9166445 L1.41664453,26.9166445 C0.634246094,26.9166445 0,27.550957 0,28.3333555 L0,32.5833555 C0,33.3657539 0.634246094,34 1.41664453,34 L8.5,34 C9.28239844,34 9.91664453,33.3657539 9.91664453,32.5833555 L9.91664453,28.3333555 C9.91664453,27.550957 9.28239844,26.9166445 8.5,26.9166445 Z M8.5,32.5833555 L1.41664453,32.5833555 L1.41664453,28.3333555 L8.5,28.3333555 L8.5,32.5833555 Z" id="Shape"></path>
                    <path d="M32.5833555,26.9166445 L25.5,26.9166445 C24.7176016,26.9166445 24.0833555,27.5508906 24.0833555,28.3332891 L24.0833555,32.5832891 C24.0833555,33.3656875 24.7176016,33.9999336 25.5,33.9999336 L32.5833555,33.9999336 C33.3657539,33.9999336 34,33.3656875 34,32.5832891 L34,28.3332891 C34,27.550957 33.3657539,26.9166445 32.5833555,26.9166445 Z M32.5833555,32.5833555 L25.5,32.5833555 L25.5,28.3333555 L32.5833555,28.3333555 L32.5833555,32.5833555 Z" id="Shape"></path>
                    <path d="M20.5416445,26.9166445 L13.4583555,26.9166445 C12.675957,26.9166445 12.0417109,27.5508906 12.0417109,28.3332891 L12.0417109,32.5832891 C12.0417109,33.3656875 12.675957,33.9999336 13.4583555,33.9999336 L20.5417109,33.9999336 C21.3241094,33.9999336 21.9583555,33.3656875 21.9583555,32.5832891 L21.9583555,28.3332891 C21.9583555,27.550957 21.324043,26.9166445 20.5416445,26.9166445 Z M20.5417109,32.5833555 L13.4583555,32.5833555 L13.4583555,28.3333555 L20.5417109,28.3333555 L20.5417109,32.5833555 Z" id="Shape"></path>
                    <path d="M29.0416445,21.25 L4.95835547,21.25 C4.56715625,21.25 4.25,21.5671563 4.25,21.9583555 L4.25,25.5 L5.66664453,25.5 L5.66664453,22.6666445 L28.3332891,22.6666445 L28.3332891,25.5 L29.75,25.5 L29.75,21.9583555 C29.75,21.5671563 29.4328437,21.25 29.0416445,21.25 Z" id="Shape"></path>
                    <rect id="Rectangle-path" x="16.2914453" y="16.2914453" width="1.41664453" height="9.20855469"></rect>
                    <rect id="Rectangle-path" x="2.83335547" y="29.75" width="1.41664453" height="1.41664453"></rect>
                    <rect id="Rectangle-path" x="5.66644531" y="29.75" width="1.41664453" height="1.41664453"></rect>
                    <rect id="Rectangle-path" x="14.875" y="29.75" width="1.41664453" height="1.41664453"></rect>
                    <rect id="Rectangle-path" x="17.7085547" y="29.75" width="1.41664453" height="1.41664453"></rect>
                    <rect id="Rectangle-path" x="26.9164453" y="29.75" width="1.41664453" height="1.41664453"></rect>
                    <rect id="Rectangle-path" x="29.75" y="29.75" width="1.41664453" height="1.41664453"></rect>
                    <path d="M17,12.75 C15.0440039,12.75 13.4583555,14.3356484 13.4583555,16.2916445 L13.4583555,17 L14.875,17 L14.875,16.2916445 C14.875,15.1180469 15.8264023,14.1666445 17,14.1666445 C18.1735977,14.1666445 19.125,15.1180469 19.125,16.2916445 L19.125,17 L20.5416445,17 L20.5416445,16.2916445 C20.5416445,14.3356484 18.9559961,12.75 17,12.75 Z" id="Shape"></path>
                </g>
            </g>
        </g>
    </g>
</svg>