<?xml version="1.0" encoding="UTF-8" standalone="no"?>
<svg width="81px" height="81px" viewBox="0 0 81 81" version="1.1" xmlns="http://www.w3.org/2000/svg" xmlns:xlink="http://www.w3.org/1999/xlink">
    <!-- Generator: Sketch 50.2 (55047) - http://www.bohemiancoding.com/sketch -->
    <title>unemployeed</title>
    <desc>Created with Sketch.</desc>
    <defs></defs>
    <g id="Mail-file" stroke="none" stroke-width="1" fill="none" fill-rule="evenodd">
        <g id="unemployeed" transform="translate(1.000000, 1.000000)">
            <circle id="Oval-Copy-7" stroke="#F8BD00" fill="#F8BD00" cx="39.5" cy="39.5" r="39.5"></circle>
            <g id="job-(2)" transform="translate(23.000000, 23.000000)" fill="#FFFFFF" fill-rule="nonzero">
                <path d="M33.4422539,29.0537969 L26.8325742,22.4441172 C26.5731914,22.1848008 26.1528398,22.1848008 25.8933906,22.4441172 L25.602332,22.7351758 L23.7683906,20.9012344 C24.8384609,19.4359805 25.604125,17.7571641 25.9943281,15.977543 C26.0729531,15.6192813 25.8462422,15.2652031 25.4879805,15.1866445 C25.1295195,15.1083516 24.7755742,15.3347969 24.697082,15.6930586 C23.5183047,21.0681133 18.6624805,24.9693477 13.1508945,24.9693477 C6.63305469,24.9693477 1.33025,19.6666094 1.33025,13.1487031 C1.33025,6.63079688 6.63292187,1.328125 13.1508281,1.328125 C18.8216562,1.328125 23.7053047,5.36469531 24.7628906,10.9261523 C24.8314219,11.2864063 25.1789258,11.5230117 25.5393125,11.4544805 C25.8996328,11.3859492 26.1361055,11.0383125 26.0676406,10.6780586 C24.8909883,4.49078906 19.458625,0 13.1508281,0 C5.90052734,0 0.00205859375,5.89846875 0.00205859375,13.1487695 C0.00205859375,20.3990703 5.90052734,26.2975391 13.1508281,26.2975391 C15.9355742,26.2975391 18.6608203,25.404375 20.9000391,23.7711133 L22.73325,25.6043242 L22.4421914,25.8953828 C22.182875,26.1546992 22.182875,26.5751836 22.4421914,26.8345664 L29.0518711,33.4442461 C29.422418,33.8147266 29.9091094,34 30.3958672,34 C30.8824922,34 31.3691836,33.8147266 31.7397305,33.4442461 L33.4422539,31.7417227 C34.1832148,31.0006953 34.1832148,29.7948906 33.4422539,29.0537969 Z M21.9371719,22.9299453 C22.2853398,22.6166406 22.6157773,22.2856055 22.9272891,21.9386328 L24.6631484,23.6744922 L23.6724336,24.665207 L21.9371719,22.9299453 Z M32.5030039,30.8026055 L30.8004805,32.5051289 C30.5772227,32.7283867 30.2141133,32.7282539 29.9909883,32.5051289 L23.8509336,26.3650742 L26.3629492,23.8529922 L32.5030039,29.9929805 C32.7261953,30.2162383 32.7261953,30.5794141 32.5030039,30.8026055 Z" id="Shape"></path>
                <path d="M9.42483984,9.56276562 L6.60091406,9.56276562 C6.23421875,9.56276562 5.93685156,9.86006641 5.93685156,10.2268281 C5.93685156,10.5935898 6.23421875,10.8908906 6.60091406,10.8908906 L7.34878125,10.8908906 L7.34878125,14.4234375 C7.34878125,14.8358203 7.01329687,15.1713047 6.60091406,15.1713047 C6.18853125,15.1713047 5.85304687,14.8358203 5.85304687,14.4234375 C5.85304687,14.0566758 5.55567969,13.759375 5.18898437,13.759375 C4.82228906,13.759375 4.52492187,14.0566758 4.52492187,14.4234375 C4.52492187,15.5681484 5.45620312,16.4994961 6.60098047,16.4994961 C7.74575781,16.4994961 8.67703906,15.5682148 8.67703906,14.4234375 L8.67703906,10.8908906 L9.42490625,10.8908906 C9.79160156,10.8908906 10.0889687,10.5935898 10.0889687,10.2268281 C10.0889687,9.86006641 9.79160156,9.56276562 9.42483984,9.56276562 Z" id="Shape"></path>
                <path d="M13.3190352,9.56276562 C11.4065352,9.56276562 9.85070312,11.1186641 9.85070312,13.0310977 C9.85070312,14.9435313 11.406668,16.4994961 13.3191016,16.4994961 C15.2315352,16.4994961 16.7875,14.9435312 16.7875,13.0310977 C16.7875,11.1186641 15.2315352,9.56276562 13.3190352,9.56276562 Z M13.3190352,15.1713711 C12.1389297,15.1713711 11.1787617,14.2112695 11.1787617,13.0310977 C11.1787617,11.8509922 12.1388633,10.8908906 13.3190352,10.8908906 C14.499207,10.8908906 15.4593086,11.8509922 15.4593086,13.0310977 C15.4593086,14.2112031 14.4991406,15.1713711 13.3190352,15.1713711 Z" id="Shape"></path>
                <path d="M21.776668,11.6877656 C21.7767344,10.5160273 20.8234062,9.56269922 19.651668,9.56269922 L18.2886797,9.56269922 C17.9219844,9.56269922 17.6246172,9.86 17.6246172,10.2267617 L17.6246172,13.1487031 L17.6246172,16.0706445 C17.6246172,16.4374062 17.9219844,16.734707 18.2886797,16.734707 L19.6516016,16.734707 C20.8233398,16.734707 21.776668,15.7814453 21.776668,14.6096406 C21.776668,14.0440586 21.5541406,13.529875 21.192625,13.1486367 C21.5541406,12.7675977 21.776668,12.2534141 21.776668,11.6877656 Z M19.651668,15.4066484 L18.9528086,15.4066484 L18.9528086,13.812832 L19.6516016,13.812832 C20.0910117,13.812832 20.4484766,14.1702969 20.4484766,14.609707 C20.448543,15.0491836 20.0910781,15.4066484 19.651668,15.4066484 Z M19.6516016,12.484707 L18.9528086,12.484707 L18.9528086,10.8908906 L19.6516016,10.8908906 C20.0910117,10.8908906 20.4484766,11.2483555 20.4484766,11.6877656 C20.4484766,12.1271758 20.0910117,12.484707 19.6516016,12.484707 Z" id="Shape"></path>
                <path d="M25.6355352,12.4846406 C25.2688398,12.4846406 24.9714727,12.7820078 24.9714727,13.1487695 L24.9713398,13.1959844 C24.9699453,13.5627461 25.2660508,13.8612422 25.6328125,13.8626367 C25.6337422,13.8626367 25.6345391,13.8626367 25.6354687,13.8626367 C26.0009687,13.8626367 26.2980703,13.5669961 26.2994648,13.2011641 L26.2995977,13.1487031 C26.2995977,12.7819414 26.0022305,12.4846406 25.6355352,12.4846406 Z" id="Shape"></path>
                <path d="M20.0949961,6.20460156 C16.2659453,2.37568359 10.0357109,2.37568359 6.20666016,6.20460156 C5.94734375,6.46391797 5.94734375,6.88440234 6.20666016,7.14371875 C6.46597656,7.40310156 6.88632813,7.40310156 7.14584375,7.14371875 C10.4569922,3.83263672 15.8445977,3.83263672 19.1558789,7.14371875 C19.2855703,7.27341016 19.4555039,7.33822266 19.6254375,7.33822266 C19.7954375,7.33822266 19.9653047,7.27334375 20.0949961,7.14371875 C20.3543125,6.88446875 20.3543125,6.46391797 20.0949961,6.20460156 Z" id="Shape"></path>
                <path d="M7.159125,19.1669687 L7.14597656,19.1537539 C6.88646094,18.8944375 6.46610938,18.8944375 6.20672656,19.1537539 C5.94741016,19.4130703 5.94741016,19.8335547 6.20672656,20.0929375 C6.20732422,20.0934687 6.21230469,20.0984492 6.21283594,20.0989805 L6.21589063,20.1019688 C6.34578125,20.2325898 6.51651172,20.298 6.687375,20.298 C6.85644531,20.298 7.02564844,20.2338516 7.15500781,20.1054219 C7.4151875,19.8472344 7.41717969,19.4272813 7.159125,19.1669687 Z" id="Shape"></path>
                <path d="M20.0949961,19.1537539 C19.8356797,18.8945039 19.4153281,18.8944375 19.1558125,19.1537539 C16.4532109,21.8563555 12.2515547,22.4202773 8.93841406,20.525375 C8.61999609,20.3432891 8.21438672,20.4537227 8.03223438,20.7721406 C7.85014844,21.0904922 7.96064844,21.496168 8.279,21.6782539 C9.79485547,22.5451875 11.4712148,22.9671328 13.1375469,22.9671328 C15.6836953,22.9671328 18.2060703,21.9817969 20.0950625,20.0929375 C20.3543789,19.8336875 20.3543789,19.4131367 20.0949961,19.1537539 Z" id="Shape"></path>
            </g>
        </g>
    </g>
</svg>